<!DOCTYPE svg PUBLIC "-//W3C//DTD SVG 1.1//EN" "http://www.w3.org/Graphics/SVG/1.1/DTD/svg11.dtd">
<!-- Uploaded to: SVG Repo, www.svgrepo.com, Transformed by: SVG Repo Mixer Tools -->
<svg fill="#e6c55a" version="1.1" id="Capa_1" xmlns="http://www.w3.org/2000/svg" xmlns:xlink="http://www.w3.org/1999/xlink" width="256px" height="256px" viewBox="0 0 476.54 476.54" xml:space="preserve" stroke="#e6c55a" transform="rotate(0)">
<g id="SVGRepo_bgCarrier" stroke-width="0"/>
<g id="SVGRepo_tracerCarrier" stroke-linecap="round" stroke-linejoin="round"/>
<g id="SVGRepo_iconCarrier"> <g> <path d="M295.299,282.438v-6.684c0-12.45-10.126-22.568-22.558-22.568h-70.944c-12.44,0-22.558,10.127-22.558,22.568v6.684 c0,12.441,10.126,22.559,22.558,22.559h70.944C285.173,305.006,295.299,294.879,295.299,282.438z"/> <path d="M184.537,237.905v-74.731h-16.878c-24.25,0-43.987,19.718-43.987,43.978v40.22h47.765 C175.128,243.414,179.555,240.191,184.537,237.905z"/> <rect x="203.662" y="324.131" width="57.165" height="66.22"/> <path d="M306.871,163.174h-26.909v71.614c19.536,3.442,34.463,20.454,34.463,40.966v6.684c0,1.77-0.306,3.452-0.525,5.164h36.949 v-80.459C350.848,182.892,331.121,163.174,306.871,163.174z"/> <rect x="203.662" y="163.174" width="57.165" height="70.887"/> <path d="M364.092,0H219.526c-41.396,0-94.238,27.473-118.03,61.353L80.545,91.245c-23.792,33.88-43.06,94.917-43.06,136.313 v174.019c0,41.396,33.555,74.961,74.96,74.961h251.647c41.405,0,74.961-33.564,74.961-74.961V74.96 C439.053,33.564,405.498,0,364.092,0z M369.973,346.363c0,34.798-28.314,63.112-63.112,63.112H167.659 c-34.798,0-63.112-28.314-63.112-63.112V207.143c0-34.798,28.314-63.103,63.112-63.103h139.211 c34.798,0,63.112,28.305,63.112,63.103v139.221H369.973z"/> <path d="M279.952,323.403v66.947h26.909c24.25,0,43.987-19.728,43.987-43.987v-39.637h-44.389 C300.234,315.361,290.843,321.472,279.952,323.403z"/> <path d="M160.105,282.438v-6.684c0-3.194,0.44-6.273,1.119-9.267h-37.552v79.876c0,24.25,19.728,43.987,43.987,43.987h16.878 v-70.064C170.165,313.688,160.105,299.249,160.105,282.438z"/> </g> </g>
</svg>